<svg width="64" height="64" viewBox="0 0 64 64" fill="none" xmlns="http://www.w3.org/2000/svg">
  <!-- Dynamic diamond shape -->
  <path d="M32 4 L50 14 L42 32 L50 50 L32 60 L14 50 L22 32 L14 14 Z" 
        fill="url(#gradient1)" 
        stroke="url(#gradient2)" 
        stroke-width="2"/>
  
  <!-- Inner geometric pattern -->
  <path d="M32 8 L46 16 L40 28 L46 40 L32 48 L18 40 L24 28 L18 16 Z" 
        fill="url(#innerGlow)" 
        opacity="0.4"/>
  
  <!-- Bold "P" letter -->
  <path d="M20 20 L20 44 M20 20 L40 20 Q48 20 48 28 L48 36 Q48 44 40 44 L20 44" 
        stroke="url(#textGradient)" 
        stroke-width="4" 
        stroke-linecap="round" 
        stroke-linejoin="round" 
        fill="none"/>
  
  <!-- Electric circuit pattern -->
  <circle cx="28" cy="26" r="3" fill="url(#electricGradient)" opacity="0.9"/>
  <circle cx="36" cy="28" r="2.5" fill="url(#electricGradient)" opacity="0.7"/>
  <circle cx="32" cy="32" r="2.5" fill="url(#electricGradient)" opacity="0.8"/>
  <circle cx="40" cy="30" r="2" fill="url(#electricGradient)" opacity="0.6"/>
  
  <!-- Lightning connections -->
  <path d="M28 26 L32 32 M36 28 L40 30 M32 32 L36 28" 
        stroke="url(#electricGradient)" 
        stroke-width="2.5" 
        stroke-linecap="round" 
        opacity="0.7"/>
  
  <!-- Background elements -->
  <circle cx="8" cy="12" r="2" fill="url(#accentGradient)" opacity="0.4"/>
  <circle cx="56" cy="52" r="1.5" fill="url(#electricGradient)" opacity="0.3"/>
  
  <!-- Gradient definitions -->
  <defs>
    <linearGradient id="gradient1" x1="0%" y1="0%" x2="100%" y2="100%">
      <stop offset="0%" style="stop-color:#F59E0B;stop-opacity:1" />
      <stop offset="25%" style="stop-color:#EF4444;stop-opacity:1" />
      <stop offset="50%" style="stop-color:#EC4899;stop-opacity:1" />
      <stop offset="75%" style="stop-color:#8B5CF6;stop-opacity:1" />
      <stop offset="100%" style="stop-color:#06B6D4;stop-opacity:1" />
    </linearGradient>
    <linearGradient id="gradient2" x1="0%" y1="0%" x2="100%" y2="100%">
      <stop offset="0%" style="stop-color:#FBBF24;stop-opacity:1" />
      <stop offset="50%" style="stop-color:#F87171;stop-opacity:1" />
      <stop offset="100%" style="stop-color:#A78BFA;stop-opacity:1" />
    </linearGradient>
    <linearGradient id="innerGlow" x1="0%" y1="0%" x2="100%" y2="100%">
      <stop offset="0%" style="stop-color:#FFFFFF;stop-opacity:0.3" />
      <stop offset="100%" style="stop-color:#FFFFFF;stop-opacity:0.1" />
    </linearGradient>
    <linearGradient id="textGradient" x1="0%" y1="0%" x2="100%" y2="0%">
      <stop offset="0%" style="stop-color:#FFFFFF;stop-opacity:1" />
      <stop offset="100%" style="stop-color:#F8FAFC;stop-opacity:1" />
    </linearGradient>
    <linearGradient id="accentGradient" x1="0%" y1="0%" x2="100%" y2="0%">
      <stop offset="0%" style="stop-color:#F59E0B;stop-opacity:1" />
      <stop offset="50%" style="stop-color:#EC4899;stop-opacity:1" />
      <stop offset="100%" style="stop-color:#8B5CF6;stop-opacity:1" />
    </linearGradient>
    <linearGradient id="electricGradient" x1="0%" y1="0%" x2="100%" y2="100%">
      <stop offset="0%" style="stop-color:#FBBF24;stop-opacity:1" />
      <stop offset="50%" style="stop-color:#F59E0B;stop-opacity:1" />
      <stop offset="100%" style="stop-color:#EF4444;stop-opacity:1" />
    </linearGradient>
  </defs>
</svg>
